<svg xmlns="http://www.w3.org/2000/svg" viewBox="0 0 192 192" fill="none">
  <rect width="192" height="192" rx="40" fill="url(#gradient)"/>
  <defs>
    <linearGradient id="gradient" x1="0" y1="0" x2="192" y2="192" gradientUnits="userSpaceOnUse">
      <stop stop-color="#2dd4bf"/>
      <stop offset="1" stop-color="#06b6d4"/>
    </linearGradient>
  </defs>
  <path fill="white" d="M96 45c-22.091 0-40 17.909-40 40 0 13.807 6.991 25.999 17.636 33.272l6.364 4.25v15.478c0 8.836 7.164 16 16 16s16-7.164 16-16v-15.478l6.364-4.25C129.009 110.999 136 98.807 136 85c0-22.091-17.909-40-40-40zm0 16c13.255 0 24 10.745 24 24 0 8.284-4.194 15.6-10.586 19.964L104 108.322V138c0 4.418-3.582 8-8 8s-8-3.582-8-8v-29.678l-5.414-3.358C76.194 100.6 72 93.284 72 85c0-13.255 10.745-24 24-24z"/>
  <circle fill="white" cx="96" cy="75" r="8"/>
</svg>
